HIERARCHY
ROOT hip
{
	OFFSET 0.000000 0.000000 0.000000 
	CHANNELS 6 Xposition Yposition Zposition Xrotation Zrotation Yrotation
	JOINT abdomen
	{
		OFFSET 0.000000 3.402643 0.000000 
		CHANNELS 3 Xrotation Zrotation Yrotation
		JOINT chest
		{
			OFFSET 0.000000 8.438565 -0.680529 
			CHANNELS 3 Xrotation Zrotation Yrotation
			JOINT neck
			{
				OFFSET 0.000000 10.207942 -0.272212 
				CHANNELS 3 Xrotation Zrotation Yrotation
				JOINT head
				{
					OFFSET 0.000000 3.130431 0.000000 
					CHANNELS 3 Xrotation Zrotation Yrotation
					End Site
					{
						OFFSET 0.000000 3.130435 0.000000 
					}
				}
			}
			JOINT lCollar
			{
				OFFSET 3.470700 6.669187 -0.816635 
				CHANNELS 3 Yrotation Zrotation Xrotation
				JOINT lShldr
				{
					OFFSET 3.198488 0.000000 0.000000 
					CHANNELS 3 Zrotation Yrotation Xrotation
					JOINT lForeArm
					{
						OFFSET 10.139888 0.000000 0.000000 
						CHANNELS 3 Yrotation Zrotation Xrotation
						JOINT lHand
						{
							OFFSET 8.370511 0.000000 0.000000 
							CHANNELS 3 Zrotation Yrotation Xrotation
							End Site
							{
								OFFSET 4.083176 0.000000 0.000000 
							}
						}
					}
				}
			}
			JOINT rCollar
			{
				OFFSET -3.470700 6.669187 -0.816635 
				CHANNELS 3 Yrotation Zrotation Xrotation
				JOINT rShldr
				{
					OFFSET -3.198488 0.000000 0.000000 
					CHANNELS 3 Zrotation Yrotation Xrotation
					JOINT rForeArm
					{
						OFFSET -10.139888 0.000000 0.000000 
						CHANNELS 3 Yrotation Zrotation Xrotation
						JOINT rHand
						{
							OFFSET -8.370511 0.000000 0.000000 
							CHANNELS 3 Zrotation Yrotation Xrotation
							End Site
							{
								OFFSET -4.083176 0.000000 0.000000 
							}
						}
					}
				}
			}
		}
	}
	JOINT lThigh
	{
		OFFSET 5.308129 -1.633274 1.361059 
		CHANNELS 3 Xrotation Zrotation Yrotation
		JOINT lShin
		{
			OFFSET -2.041588 -20.007561 0.000000 
			CHANNELS 3 Xrotation Zrotation Yrotation
			JOINT lFoot
			{
				OFFSET 0.000000 -19.190928 -1.224953 
				CHANNELS 3 Xrotation Yrotation Zrotation
				End Site
				{
					OFFSET 0.000000 -2.449906 4.627600 
				}
			}
		}
	}
	JOINT rThigh
	{
		OFFSET -5.308129 -1.633274 1.361059 
		CHANNELS 3 Xrotation Zrotation Yrotation
		JOINT rShin
		{
			OFFSET 2.041588 -20.007561 0.000000 
			CHANNELS 3 Xrotation Zrotation Yrotation
			JOINT rFoot
			{
				OFFSET 0.000000 -19.190928 -1.224953 
				CHANNELS 3 Xrotation Yrotation Zrotation
				End Site
				{
					OFFSET 0.000000 -2.449906 4.627600 
				}
			}
		}
	}
}
MOTION
Frames: 11
Frame Time: 0.033333
-5.072639 44.893482 -66.401131 1.572266 -6.503906 48.496098 25.849611 3.339844 1.211506 -17.031250 2.226563 0.195692 -8.349608 -1.816406 -22.246405 4.394531 5.986328 -22.733356 2.402344 5.898438 0.263672 -65.224609 -18.837891 50.341797 -86.513672 -0.312500 19.335993 -65.332039 -127.226563 61.718750 -5.429688 3.994141 -0.362008 59.746098 0.039062 4.960944 35.263676 2.539063 -18.828558 -17.148436 18.632813 -5.201957 -28.443195 17.496407 11.003275 51.224808 -0.411745 -2.910664 -24.462364 10.734211 -0.139886 -42.156029 -14.227839 -7.648620 54.028526 -0.214800 2.922711 -9.591695 -11.685547 2.922875 
-5.101733 44.839108 -66.374535 1.230469 -6.689453 49.541569 26.025391 3.496094 1.270127 -16.865232 2.402344 0.195722 -8.300781 -1.689453 -22.949505 3.867188 6.152344 -23.455980 3.261719 7.500000 0.244141 -64.199219 -25.771484 51.171875 -87.753906 -0.722656 14.775392 -66.992180 -128.017578 63.498173 -5.595703 3.828125 -0.361328 59.755856 -0.175781 3.466797 34.667973 2.460938 -17.617607 -16.718750 18.544924 -5.019531 -28.993757 17.519293 9.715753 51.575676 -0.421638 -2.942539 -24.468336 10.731859 -0.185908 -41.959938 -14.236927 -7.840949 54.556145 -0.214915 2.926883 -9.954530 -12.177074 2.497083 
-5.148238 44.760288 -66.293800 0.703125 -6.865234 50.937504 26.025391 3.271485 1.377510 -16.679686 2.929688 0.381359 -8.261718 -1.396484 -23.506186 3.515625 6.142579 -23.994139 4.277344 8.916017 0.351562 -62.636715 -34.121094 49.965225 -89.052734 -0.957031 10.234373 -68.125000 -129.003906 64.543190 -5.957031 3.994141 -0.322266 59.453121 -0.517578 2.871094 33.994137 2.490234 -16.875000 -16.699219 18.359375 -4.957861 -29.683622 17.692406 7.886788 52.093197 -0.421702 -2.959054 -24.428074 10.842670 -0.128794 -41.540028 -14.178541 -8.713325 55.433643 -0.195325 2.995508 -10.410290 -12.560737 2.423282 
-5.201896 44.654644 -66.121857 0.166016 -7.031250 52.382813 26.015625 3.125000 1.318892 -16.328125 3.632813 0.390625 -8.564453 -1.445313 -24.209232 3.515625 6.494141 -24.707029 5.634765 10.185546 0.341797 -59.941406 -43.320313 46.106583 -90.566406 -1.162109 5.849610 -69.687500 -129.853516 66.144844 -6.132701 3.994069 -0.303412 58.886723 -0.898438 2.792815 33.300781 2.460938 -17.939875 -16.123047 18.281250 -4.785156 -30.428137 17.723619 6.528833 52.782856 -0.295081 -3.292327 -24.552319 9.839802 -0.555261 -41.303764 -14.606976 -9.682071 56.469906 -0.380714 3.131486 -10.822796 -13.161626 2.309172 
-5.249951 44.513222 -65.842361 -0.361328 -7.031250 54.121090 25.996094 2.460938 1.074638 -16.152346 4.511719 0.556641 -8.701172 -1.142578 -24.765820 3.701171 6.494140 -25.214844 6.962891 11.132813 0.515693 -54.443356 -52.578125 38.966850 -92.265625 -1.503906 1.631116 108.183594 -49.121090 -111.640625 -6.474609 4.179688 -0.274149 57.890629 -2.041016 2.480121 33.291016 2.373047 -16.054688 -15.751953 17.138672 -4.391654 -31.010616 18.326563 5.653456 53.313057 -0.285376 -3.488262 -24.315485 8.809609 -1.250096 -40.925552 -14.950021 -10.633341 57.714878 -0.380968 3.031317 -11.610905 -13.813917 1.673046 
-5.307663 44.314682 -65.420120 -0.878906 -6.875000 56.064453 25.996094 1.679688 0.615521 -16.494141 5.214844 0.391513 -8.818360 -0.488281 -25.517578 3.876954 6.679820 -25.917274 8.320313 12.070313 0.447177 -45.136719 -60.878910 26.622326 -93.593750 -1.679688 -1.894245 105.927734 -48.134766 -108.864693 -6.474609 4.707031 -0.381661 57.519531 -3.925781 0.810547 33.408203 2.070312 -11.172228 -14.384766 15.625000 -3.583984 -31.891741 19.392639 5.172114 54.200626 -0.285746 -3.542308 -24.244324 6.790275 -2.145178 -40.892410 -15.269788 -11.901437 59.639919 -0.556396 3.175638 -11.781720 -14.477719 1.705672 
-5.358102 44.054977 -64.814148 -1.425781 -6.875000 58.173828 26.337893 0.742188 0.088017 -17.197266 5.917970 0.206085 -9.111328 0.322266 -26.279242 4.394531 6.679820 -26.600878 9.951173 13.222657 0.603235 -30.126949 -67.060547 7.471476 -94.189453 -1.679688 -4.199219 103.984375 -46.982422 -106.735657 -6.279297 5.244141 -0.342689 57.412113 -6.640625 -1.827301 35.087891 1.884766 -7.236650 -12.705077 13.574219 -2.800441 -32.473385 20.824818 5.145213 54.890663 -0.109830 -3.306002 -24.436090 4.178022 -3.410564 -41.804649 -16.170904 -12.951133 62.966606 -0.732400 3.198623 -10.806845 -14.643954 1.964575 
-5.399958 43.735416 -64.064713 -2.119140 -6.865235 60.096493 26.689455 -0.195313 -0.429721 -17.734375 6.621094 0.196438 -9.580078 1.132813 -27.216602 5.107422 6.679820 -27.274714 11.445313 14.199218 0.556641 -7.724609 -70.117195 -18.934965 -94.580078 -1.845703 -6.152343 102.343750 -45.722656 -104.899567 -6.279297 5.244141 -0.342689 57.763668 -9.306641 -2.617188 37.421875 1.572266 -3.476830 -11.699219 12.626954 -2.370910 -33.108994 22.905268 4.735319 55.933838 -0.256599 -3.450420 -24.350929 1.491757 -4.357087 -43.131031 -16.980011 -13.911252 67.191978 -1.074149 3.337592 -8.563025 -13.635728 2.921146 
-5.456001 43.356701 -63.193771 -2.988281 -7.050781 61.834740 27.050781 -0.751953 -0.439581 -18.779297 6.455078 0.186645 -10.205079 2.109375 -28.339846 5.820313 6.679820 -27.959452 13.017579 15.605470 0.700498 14.853515 -68.896484 -45.224609 -94.423828 -1.923828 -7.743813 101.865234 -44.716793 -104.440460 -6.113281 5.419922 -0.342719 58.007813 -11.699219 -1.242213 39.560547 1.494141 -0.097911 -11.357422 12.812500 -2.353602 -34.432690 25.233667 4.324596 57.359211 -0.090857 -3.416888 -24.863785 -1.056354 -5.795368 -44.644871 -18.298307 -15.092573 71.216972 -1.240181 3.224703 -7.458298 -11.677385 3.153186 
-5.532434 42.926838 -62.250576 -3.691406 -7.216797 63.416744 27.578125 -1.298828 -0.459206 -19.658203 6.621094 0.518704 -10.810547 2.197266 -29.403919 6.699219 6.865235 -28.992975 14.374999 15.878905 0.664062 28.847656 -64.882813 -62.363281 -94.101563 -2.070312 -8.798827 101.699219 -44.013672 -104.440384 -6.113281 5.058594 -0.371955 58.310539 -12.226563 0.634766 41.806637 1.337891 2.636719 -10.625000 15.449221 -2.516929 -35.588223 27.806181 3.591422 58.594883 0.073098 -3.216142 -24.798822 -3.604291 -7.034790 -46.147644 -19.459627 -15.146314 74.213699 -1.582233 3.251898 -7.071496 -10.807362 3.391823 
-5.631285 42.455002 -61.256935 -4.394532 -7.578125 64.492188 27.919924 -1.582031 -0.176051 -20.546877 6.806641 0.849612 -11.982421 1.777344 -30.253603 7.568360 7.041016 -29.666773 15.244139 15.605468 0.664063 36.367188 -60.029297 -72.010414 -93.759766 -1.923828 -8.964844 101.464844 -42.978516 -104.225410 -6.123047 4.541016 -0.429688 58.808590 -9.970703 1.757813 44.658203 1.074219 5.751953 -9.169922 15.878905 -2.282484 -37.260174 30.346968 2.560070 59.625809 0.102592 -3.597774 -24.873419 -5.431161 -7.824362 -47.572315 -21.401804 -14.429358 75.283226 -1.455093 3.260605 -7.006326 -10.316284 3.824881 
